<mxfile host="app.diagrams.net" modified="2020-07-10T07:34:05.497Z" agent="5.0 (Windows NT 6.2; Win64; x64) AppleWebKit/537.36 (KHTML, like Gecko) Chrome/83.0.4103.106 Safari/537.36" etag="UyhOhy7cFLosYhbqRO4U" version="13.3.6" type="github">
  <diagram id="zAklxPVSnyF1f9p-QhmA" name="Page-1">
    <mxGraphModel dx="2121" dy="598" grid="1" gridSize="10" guides="1" tooltips="1" connect="1" arrows="1" fold="1" page="1" pageScale="1" pageWidth="827" pageHeight="1169" math="0" shadow="0">
      <root>
        <mxCell id="0" />
        <mxCell id="1" parent="0" />
        <mxCell id="JtGoAlClPYQqaDhEBIHm-8" style="orthogonalLoop=1;jettySize=auto;html=1;exitX=1;exitY=1;exitDx=0;exitDy=0;entryX=0;entryY=0;entryDx=0;entryDy=0;" parent="1" source="JtGoAlClPYQqaDhEBIHm-1" target="JtGoAlClPYQqaDhEBIHm-3" edge="1">
          <mxGeometry relative="1" as="geometry" />
        </mxCell>
        <mxCell id="JtGoAlClPYQqaDhEBIHm-10" style="edgeStyle=none;orthogonalLoop=1;jettySize=auto;html=1;exitX=0;exitY=1;exitDx=0;exitDy=0;entryX=0.567;entryY=-0.012;entryDx=0;entryDy=0;entryPerimeter=0;" parent="1" source="JtGoAlClPYQqaDhEBIHm-1" target="JtGoAlClPYQqaDhEBIHm-9" edge="1">
          <mxGeometry relative="1" as="geometry" />
        </mxCell>
        <mxCell id="JtGoAlClPYQqaDhEBIHm-1" value="激光建图定位方案" style="ellipse;whiteSpace=wrap;html=1;" parent="1" vertex="1">
          <mxGeometry x="-20" y="60" width="200" height="130" as="geometry" />
        </mxCell>
        <mxCell id="JtGoAlClPYQqaDhEBIHm-15" style="edgeStyle=none;orthogonalLoop=1;jettySize=auto;html=1;exitX=1;exitY=1;exitDx=0;exitDy=0;" parent="1" source="JtGoAlClPYQqaDhEBIHm-2" target="JtGoAlClPYQqaDhEBIHm-11" edge="1">
          <mxGeometry relative="1" as="geometry" />
        </mxCell>
        <mxCell id="JtGoAlClPYQqaDhEBIHm-16" style="edgeStyle=none;orthogonalLoop=1;jettySize=auto;html=1;exitX=0;exitY=1;exitDx=0;exitDy=0;entryX=0.75;entryY=0.125;entryDx=0;entryDy=0;entryPerimeter=0;" parent="1" source="JtGoAlClPYQqaDhEBIHm-2" target="JtGoAlClPYQqaDhEBIHm-14" edge="1">
          <mxGeometry relative="1" as="geometry" />
        </mxCell>
        <mxCell id="JtGoAlClPYQqaDhEBIHm-17" style="edgeStyle=none;orthogonalLoop=1;jettySize=auto;html=1;exitX=0;exitY=0.5;exitDx=0;exitDy=0;" parent="1" source="JtGoAlClPYQqaDhEBIHm-2" target="JtGoAlClPYQqaDhEBIHm-3" edge="1">
          <mxGeometry relative="1" as="geometry" />
        </mxCell>
        <mxCell id="JtGoAlClPYQqaDhEBIHm-18" value="GPS位置用于激光建图的校准" style="edgeLabel;html=1;align=center;verticalAlign=middle;resizable=0;points=[];" parent="JtGoAlClPYQqaDhEBIHm-17" vertex="1" connectable="0">
          <mxGeometry x="0.12" relative="1" as="geometry">
            <mxPoint as="offset" />
          </mxGeometry>
        </mxCell>
        <mxCell id="JtGoAlClPYQqaDhEBIHm-2" value="高精度GPS-IMU融合方案" style="ellipse;whiteSpace=wrap;html=1;" parent="1" vertex="1">
          <mxGeometry x="530" y="60" width="200" height="130" as="geometry" />
        </mxCell>
        <mxCell id="JtGoAlClPYQqaDhEBIHm-3" value="激光建图" style="ellipse;whiteSpace=wrap;html=1;" parent="1" vertex="1">
          <mxGeometry x="174" y="220" width="120" height="80" as="geometry" />
        </mxCell>
        <mxCell id="JtGoAlClPYQqaDhEBIHm-20" style="edgeStyle=none;orthogonalLoop=1;jettySize=auto;html=1;exitX=1;exitY=1;exitDx=0;exitDy=0;entryX=0;entryY=0;entryDx=0;entryDy=0;" parent="1" source="JtGoAlClPYQqaDhEBIHm-9" target="JtGoAlClPYQqaDhEBIHm-19" edge="1">
          <mxGeometry relative="1" as="geometry" />
        </mxCell>
        <mxCell id="JtGoAlClPYQqaDhEBIHm-9" value="NDT匹配定位" style="ellipse;whiteSpace=wrap;html=1;" parent="1" vertex="1">
          <mxGeometry x="-100" y="220" width="120" height="80" as="geometry" />
        </mxCell>
        <mxCell id="JtGoAlClPYQqaDhEBIHm-25" style="edgeStyle=none;orthogonalLoop=1;jettySize=auto;html=1;exitX=0;exitY=1;exitDx=0;exitDy=0;" parent="1" source="JtGoAlClPYQqaDhEBIHm-11" target="JtGoAlClPYQqaDhEBIHm-19" edge="1">
          <mxGeometry relative="1" as="geometry" />
        </mxCell>
        <mxCell id="JtGoAlClPYQqaDhEBIHm-11" value="IMU" style="ellipse;whiteSpace=wrap;html=1;" parent="1" vertex="1">
          <mxGeometry x="800" y="200" width="120" height="80" as="geometry" />
        </mxCell>
        <mxCell id="JtGoAlClPYQqaDhEBIHm-24" style="edgeStyle=none;orthogonalLoop=1;jettySize=auto;html=1;exitX=0;exitY=1;exitDx=0;exitDy=0;entryX=1;entryY=0;entryDx=0;entryDy=0;" parent="1" source="JtGoAlClPYQqaDhEBIHm-14" target="JtGoAlClPYQqaDhEBIHm-19" edge="1">
          <mxGeometry relative="1" as="geometry" />
        </mxCell>
        <mxCell id="JtGoAlClPYQqaDhEBIHm-14" value="GPS" style="ellipse;whiteSpace=wrap;html=1;" parent="1" vertex="1">
          <mxGeometry x="430" y="230" width="120" height="80" as="geometry" />
        </mxCell>
        <mxCell id="JtGoAlClPYQqaDhEBIHm-19" value="激光+GPS融合定位方案&lt;br&gt;（车辆运动学模型-加权叠加方案）" style="ellipse;whiteSpace=wrap;html=1;" parent="1" vertex="1">
          <mxGeometry x="240" y="380" width="200" height="130" as="geometry" />
        </mxCell>
        <mxCell id="JtGoAlClPYQqaDhEBIHm-21" style="edgeStyle=none;orthogonalLoop=1;jettySize=auto;html=1;exitX=1;exitY=1;exitDx=0;exitDy=0;entryX=0;entryY=0;entryDx=0;entryDy=0;" parent="1" edge="1">
          <mxGeometry relative="1" as="geometry">
            <mxPoint x="19.996406871192285" y="710.0042712474617" as="sourcePoint" />
            <mxPoint x="286.4697402788027" y="821.0126901792304" as="targetPoint" />
          </mxGeometry>
        </mxCell>
        <mxCell id="JtGoAlClPYQqaDhEBIHm-23" style="edgeStyle=none;orthogonalLoop=1;jettySize=auto;html=1;exitX=0;exitY=0;exitDx=0;exitDy=0;entryX=1;entryY=1;entryDx=0;entryDy=0;" parent="1" source="JtGoAlClPYQqaDhEBIHm-22" target="JtGoAlClPYQqaDhEBIHm-19" edge="1">
          <mxGeometry relative="1" as="geometry" />
        </mxCell>
        <mxCell id="JtGoAlClPYQqaDhEBIHm-26" value="轮速" style="edgeLabel;html=1;align=center;verticalAlign=middle;resizable=0;points=[];" parent="JtGoAlClPYQqaDhEBIHm-23" vertex="1" connectable="0">
          <mxGeometry x="-0.0893" relative="1" as="geometry">
            <mxPoint as="offset" />
          </mxGeometry>
        </mxCell>
        <mxCell id="JtGoAlClPYQqaDhEBIHm-22" value="车身传感器" style="ellipse;whiteSpace=wrap;html=1;" parent="1" vertex="1">
          <mxGeometry x="570" y="520" width="120" height="80" as="geometry" />
        </mxCell>
        <mxCell id="JtGoAlClPYQqaDhEBIHm-34" style="edgeStyle=none;orthogonalLoop=1;jettySize=auto;html=1;exitX=0.5;exitY=1;exitDx=0;exitDy=0;" parent="1" source="JtGoAlClPYQqaDhEBIHm-27" target="JtGoAlClPYQqaDhEBIHm-30" edge="1">
          <mxGeometry relative="1" as="geometry" />
        </mxCell>
        <mxCell id="JtGoAlClPYQqaDhEBIHm-67" value="Long,Lat" style="edgeLabel;html=1;align=center;verticalAlign=middle;resizable=0;points=[];" parent="JtGoAlClPYQqaDhEBIHm-34" vertex="1" connectable="0">
          <mxGeometry x="-0.4591" y="-1" relative="1" as="geometry">
            <mxPoint as="offset" />
          </mxGeometry>
        </mxCell>
        <mxCell id="JtGoAlClPYQqaDhEBIHm-27" value="GPS" style="ellipse;whiteSpace=wrap;html=1;" parent="1" vertex="1">
          <mxGeometry x="1320" y="240" width="70" height="40" as="geometry" />
        </mxCell>
        <mxCell id="JtGoAlClPYQqaDhEBIHm-31" style="edgeStyle=none;orthogonalLoop=1;jettySize=auto;html=1;exitX=1;exitY=0.5;exitDx=0;exitDy=0;" parent="1" source="JtGoAlClPYQqaDhEBIHm-76" target="JtGoAlClPYQqaDhEBIHm-30" edge="1">
          <mxGeometry relative="1" as="geometry" />
        </mxCell>
        <mxCell id="JtGoAlClPYQqaDhEBIHm-33" value="Gyro" style="edgeLabel;html=1;align=center;verticalAlign=middle;resizable=0;points=[];" parent="JtGoAlClPYQqaDhEBIHm-31" vertex="1" connectable="0">
          <mxGeometry x="0.0947" y="2" relative="1" as="geometry">
            <mxPoint as="offset" />
          </mxGeometry>
        </mxCell>
        <mxCell id="JtGoAlClPYQqaDhEBIHm-56" style="edgeStyle=none;orthogonalLoop=1;jettySize=auto;html=1;exitX=0.5;exitY=0;exitDx=0;exitDy=0;entryX=0;entryY=0.5;entryDx=0;entryDy=0;" parent="1" source="JtGoAlClPYQqaDhEBIHm-29" target="JtGoAlClPYQqaDhEBIHm-50" edge="1">
          <mxGeometry relative="1" as="geometry" />
        </mxCell>
        <mxCell id="TmcgU3cM4aMXSd0HHcBp-4" style="edgeStyle=none;rounded=0;orthogonalLoop=1;jettySize=auto;html=1;exitX=1;exitY=0.5;exitDx=0;exitDy=0;entryX=0;entryY=0.5;entryDx=0;entryDy=0;" edge="1" parent="1" source="JtGoAlClPYQqaDhEBIHm-29" target="JtGoAlClPYQqaDhEBIHm-27">
          <mxGeometry relative="1" as="geometry" />
        </mxCell>
        <mxCell id="TmcgU3cM4aMXSd0HHcBp-5" style="edgeStyle=none;rounded=0;orthogonalLoop=1;jettySize=auto;html=1;exitX=1;exitY=1;exitDx=0;exitDy=0;" edge="1" parent="1" source="JtGoAlClPYQqaDhEBIHm-29" target="JtGoAlClPYQqaDhEBIHm-76">
          <mxGeometry relative="1" as="geometry" />
        </mxCell>
        <mxCell id="JtGoAlClPYQqaDhEBIHm-29" value="高精度GPS-IMU融合方案" style="ellipse;whiteSpace=wrap;html=1;" parent="1" vertex="1">
          <mxGeometry x="1089" y="210" width="100" height="70" as="geometry" />
        </mxCell>
        <mxCell id="JtGoAlClPYQqaDhEBIHm-48" style="edgeStyle=none;orthogonalLoop=1;jettySize=auto;html=1;exitX=1;exitY=0.5;exitDx=0;exitDy=0;entryX=0;entryY=0.5;entryDx=0;entryDy=0;shape=flexArrow;dashed=1;" parent="1" source="JtGoAlClPYQqaDhEBIHm-30" target="JtGoAlClPYQqaDhEBIHm-46" edge="1">
          <mxGeometry relative="1" as="geometry" />
        </mxCell>
        <mxCell id="JtGoAlClPYQqaDhEBIHm-64" style="edgeStyle=none;orthogonalLoop=1;jettySize=auto;html=1;exitX=0.816;exitY=0.098;exitDx=0;exitDy=0;entryX=0.5;entryY=1;entryDx=0;entryDy=0;dashed=1;exitPerimeter=0;" parent="1" source="JtGoAlClPYQqaDhEBIHm-30" target="JtGoAlClPYQqaDhEBIHm-53" edge="1">
          <mxGeometry relative="1" as="geometry" />
        </mxCell>
        <mxCell id="JtGoAlClPYQqaDhEBIHm-65" value="pos,att,P" style="edgeLabel;html=1;align=center;verticalAlign=middle;resizable=0;points=[];" parent="JtGoAlClPYQqaDhEBIHm-64" vertex="1" connectable="0">
          <mxGeometry x="-0.1282" relative="1" as="geometry">
            <mxPoint x="4.61" y="11.8" as="offset" />
          </mxGeometry>
        </mxCell>
        <mxCell id="JtGoAlClPYQqaDhEBIHm-99" style="orthogonalLoop=1;jettySize=auto;html=1;exitX=0;exitY=0.5;exitDx=0;exitDy=0;entryX=1;entryY=0.5;entryDx=0;entryDy=0;" parent="1" target="JtGoAlClPYQqaDhEBIHm-98" edge="1">
          <mxGeometry relative="1" as="geometry">
            <mxPoint x="1390" y="360" as="sourcePoint" />
            <mxPoint x="1239.0000000000005" y="360" as="targetPoint" />
          </mxGeometry>
        </mxCell>
        <mxCell id="JtGoAlClPYQqaDhEBIHm-30" value="kalman滤波&lt;br&gt;（主模型车辆运动学）" style="ellipse;whiteSpace=wrap;html=1;" parent="1" vertex="1">
          <mxGeometry x="1350" y="320" width="150" height="80" as="geometry" />
        </mxCell>
        <mxCell id="JtGoAlClPYQqaDhEBIHm-38" style="edgeStyle=none;orthogonalLoop=1;jettySize=auto;html=1;exitX=1;exitY=0;exitDx=0;exitDy=0;entryX=0.073;entryY=0.814;entryDx=0;entryDy=0;entryPerimeter=0;" parent="1" source="JtGoAlClPYQqaDhEBIHm-35" target="JtGoAlClPYQqaDhEBIHm-36" edge="1">
          <mxGeometry relative="1" as="geometry" />
        </mxCell>
        <mxCell id="JtGoAlClPYQqaDhEBIHm-43" value="车道线" style="edgeLabel;html=1;align=center;verticalAlign=middle;resizable=0;points=[];" parent="JtGoAlClPYQqaDhEBIHm-38" vertex="1" connectable="0">
          <mxGeometry x="0.1947" relative="1" as="geometry">
            <mxPoint y="-1" as="offset" />
          </mxGeometry>
        </mxCell>
        <mxCell id="JtGoAlClPYQqaDhEBIHm-82" style="edgeStyle=none;orthogonalLoop=1;jettySize=auto;html=1;exitX=0;exitY=1;exitDx=0;exitDy=0;entryX=0.5;entryY=0;entryDx=0;entryDy=0;" parent="1" source="JtGoAlClPYQqaDhEBIHm-35" target="JtGoAlClPYQqaDhEBIHm-81" edge="1">
          <mxGeometry relative="1" as="geometry" />
        </mxCell>
        <mxCell id="JtGoAlClPYQqaDhEBIHm-35" value="摄像头" style="ellipse;whiteSpace=wrap;html=1;" parent="1" vertex="1">
          <mxGeometry x="1109" y="500" width="80" height="45" as="geometry" />
        </mxCell>
        <mxCell id="JtGoAlClPYQqaDhEBIHm-45" style="edgeStyle=none;orthogonalLoop=1;jettySize=auto;html=1;exitX=0.5;exitY=0;exitDx=0;exitDy=0;" parent="1" source="JtGoAlClPYQqaDhEBIHm-36" target="JtGoAlClPYQqaDhEBIHm-30" edge="1">
          <mxGeometry relative="1" as="geometry" />
        </mxCell>
        <mxCell id="JtGoAlClPYQqaDhEBIHm-68" value="x,y,yaw" style="edgeLabel;html=1;align=center;verticalAlign=middle;resizable=0;points=[];" parent="JtGoAlClPYQqaDhEBIHm-45" vertex="1" connectable="0">
          <mxGeometry x="-0.4079" y="1" relative="1" as="geometry">
            <mxPoint x="14.12" y="-11.21" as="offset" />
          </mxGeometry>
        </mxCell>
        <mxCell id="JtGoAlClPYQqaDhEBIHm-36" value="MapMatching" style="ellipse;whiteSpace=wrap;html=1;" parent="1" vertex="1">
          <mxGeometry x="1241" y="430" width="110" height="70" as="geometry" />
        </mxCell>
        <mxCell id="JtGoAlClPYQqaDhEBIHm-40" style="edgeStyle=none;orthogonalLoop=1;jettySize=auto;html=1;exitX=1;exitY=0.5;exitDx=0;exitDy=0;" parent="1" source="JtGoAlClPYQqaDhEBIHm-39" target="JtGoAlClPYQqaDhEBIHm-36" edge="1">
          <mxGeometry relative="1" as="geometry" />
        </mxCell>
        <mxCell id="JtGoAlClPYQqaDhEBIHm-62" style="edgeStyle=none;orthogonalLoop=1;jettySize=auto;html=1;exitX=1;exitY=0.5;exitDx=0;exitDy=0;entryX=0;entryY=0.5;entryDx=0;entryDy=0;" parent="1" source="JtGoAlClPYQqaDhEBIHm-39" target="JtGoAlClPYQqaDhEBIHm-60" edge="1">
          <mxGeometry relative="1" as="geometry" />
        </mxCell>
        <mxCell id="JtGoAlClPYQqaDhEBIHm-84" style="edgeStyle=none;orthogonalLoop=1;jettySize=auto;html=1;exitX=0.5;exitY=1;exitDx=0;exitDy=0;entryX=0.5;entryY=0;entryDx=0;entryDy=0;" parent="1" source="JtGoAlClPYQqaDhEBIHm-39" target="JtGoAlClPYQqaDhEBIHm-79" edge="1">
          <mxGeometry relative="1" as="geometry" />
        </mxCell>
        <mxCell id="JtGoAlClPYQqaDhEBIHm-39" value="高精地图" style="ellipse;whiteSpace=wrap;html=1;" parent="1" vertex="1">
          <mxGeometry x="1410" y="435" width="80" height="45" as="geometry" />
        </mxCell>
        <mxCell id="JtGoAlClPYQqaDhEBIHm-42" style="edgeStyle=none;orthogonalLoop=1;jettySize=auto;html=1;exitX=0;exitY=0;exitDx=0;exitDy=0;entryX=1;entryY=1;entryDx=0;entryDy=0;" parent="1" source="JtGoAlClPYQqaDhEBIHm-41" target="JtGoAlClPYQqaDhEBIHm-36" edge="1">
          <mxGeometry relative="1" as="geometry" />
        </mxCell>
        <mxCell id="JtGoAlClPYQqaDhEBIHm-44" value="定位杆、石墩" style="edgeLabel;html=1;align=center;verticalAlign=middle;resizable=0;points=[];" parent="JtGoAlClPYQqaDhEBIHm-42" vertex="1" connectable="0">
          <mxGeometry x="-0.2635" y="-1" relative="1" as="geometry">
            <mxPoint x="-9.59" y="-2.05" as="offset" />
          </mxGeometry>
        </mxCell>
        <mxCell id="JtGoAlClPYQqaDhEBIHm-41" value="激光雷达检测" style="ellipse;whiteSpace=wrap;html=1;" parent="1" vertex="1">
          <mxGeometry x="1360" y="520" width="80" height="45" as="geometry" />
        </mxCell>
        <mxCell id="JtGoAlClPYQqaDhEBIHm-97" style="edgeStyle=none;orthogonalLoop=1;jettySize=auto;html=1;exitX=1;exitY=1;exitDx=0;exitDy=0;entryX=0.5;entryY=0;entryDx=0;entryDy=0;" parent="1" source="JtGoAlClPYQqaDhEBIHm-46" target="JtGoAlClPYQqaDhEBIHm-74" edge="1">
          <mxGeometry relative="1" as="geometry" />
        </mxCell>
        <mxCell id="JtGoAlClPYQqaDhEBIHm-46" value="kalman滤波&lt;br&gt;（INS捷联惯导模型）" style="ellipse;whiteSpace=wrap;html=1;" parent="1" vertex="1">
          <mxGeometry x="1580" y="320" width="150" height="80" as="geometry" />
        </mxCell>
        <mxCell id="JtGoAlClPYQqaDhEBIHm-54" style="edgeStyle=none;orthogonalLoop=1;jettySize=auto;html=1;exitX=0;exitY=1;exitDx=0;exitDy=0;entryX=1;entryY=0.5;entryDx=0;entryDy=0;" parent="1" source="JtGoAlClPYQqaDhEBIHm-49" target="JtGoAlClPYQqaDhEBIHm-53" edge="1">
          <mxGeometry relative="1" as="geometry" />
        </mxCell>
        <mxCell id="TmcgU3cM4aMXSd0HHcBp-2" style="rounded=0;orthogonalLoop=1;jettySize=auto;html=1;exitX=0.5;exitY=0;exitDx=0;exitDy=0;entryX=0.343;entryY=0.993;entryDx=0;entryDy=0;entryPerimeter=0;" edge="1" parent="1" source="JtGoAlClPYQqaDhEBIHm-49" target="JtGoAlClPYQqaDhEBIHm-50">
          <mxGeometry relative="1" as="geometry" />
        </mxCell>
        <mxCell id="JtGoAlClPYQqaDhEBIHm-49" value="激光建图定位方案" style="ellipse;whiteSpace=wrap;html=1;" parent="1" vertex="1">
          <mxGeometry x="1559" y="170" width="110" height="70" as="geometry" />
        </mxCell>
        <mxCell id="JtGoAlClPYQqaDhEBIHm-50" value="激光建图" style="ellipse;whiteSpace=wrap;html=1;" parent="1" vertex="1">
          <mxGeometry x="1610" y="90" width="70" height="40" as="geometry" />
        </mxCell>
        <mxCell id="JtGoAlClPYQqaDhEBIHm-57" style="edgeStyle=none;orthogonalLoop=1;jettySize=auto;html=1;exitX=0;exitY=1;exitDx=0;exitDy=0;entryX=0.667;entryY=0;entryDx=0;entryDy=0;entryPerimeter=0;" parent="1" source="JtGoAlClPYQqaDhEBIHm-53" target="JtGoAlClPYQqaDhEBIHm-30" edge="1">
          <mxGeometry relative="1" as="geometry" />
        </mxCell>
        <mxCell id="JtGoAlClPYQqaDhEBIHm-66" value="pos,att,P" style="edgeLabel;html=1;align=center;verticalAlign=middle;resizable=0;points=[];" parent="JtGoAlClPYQqaDhEBIHm-57" vertex="1" connectable="0">
          <mxGeometry x="0.3435" y="-2" relative="1" as="geometry">
            <mxPoint x="5.23" y="-26.25" as="offset" />
          </mxGeometry>
        </mxCell>
        <mxCell id="JtGoAlClPYQqaDhEBIHm-53" value="NDT匹配定位" style="ellipse;whiteSpace=wrap;html=1;" parent="1" vertex="1">
          <mxGeometry x="1460" y="215" width="70" height="40" as="geometry" />
        </mxCell>
        <mxCell id="JtGoAlClPYQqaDhEBIHm-61" style="edgeStyle=none;orthogonalLoop=1;jettySize=auto;html=1;exitX=0;exitY=0;exitDx=0;exitDy=0;entryX=1;entryY=1;entryDx=0;entryDy=0;" parent="1" source="JtGoAlClPYQqaDhEBIHm-59" target="JtGoAlClPYQqaDhEBIHm-60" edge="1">
          <mxGeometry relative="1" as="geometry" />
        </mxCell>
        <mxCell id="JtGoAlClPYQqaDhEBIHm-70" value="测距" style="edgeLabel;html=1;align=center;verticalAlign=middle;resizable=0;points=[];" parent="JtGoAlClPYQqaDhEBIHm-61" vertex="1" connectable="0">
          <mxGeometry x="0.2959" y="-1" relative="1" as="geometry">
            <mxPoint x="11.65" y="13.91" as="offset" />
          </mxGeometry>
        </mxCell>
        <mxCell id="JtGoAlClPYQqaDhEBIHm-90" style="edgeStyle=none;orthogonalLoop=1;jettySize=auto;html=1;exitX=1;exitY=0;exitDx=0;exitDy=0;entryX=0.5;entryY=1;entryDx=0;entryDy=0;" parent="1" source="JtGoAlClPYQqaDhEBIHm-59" target="JtGoAlClPYQqaDhEBIHm-89" edge="1">
          <mxGeometry relative="1" as="geometry" />
        </mxCell>
        <mxCell id="TmcgU3cM4aMXSd0HHcBp-3" style="edgeStyle=none;rounded=0;orthogonalLoop=1;jettySize=auto;html=1;exitX=1;exitY=0.5;exitDx=0;exitDy=0;entryX=0;entryY=0.5;entryDx=0;entryDy=0;" edge="1" parent="1" source="JtGoAlClPYQqaDhEBIHm-59" target="JtGoAlClPYQqaDhEBIHm-85">
          <mxGeometry relative="1" as="geometry" />
        </mxCell>
        <mxCell id="JtGoAlClPYQqaDhEBIHm-59" value="UWB" style="ellipse;whiteSpace=wrap;html=1;" parent="1" vertex="1">
          <mxGeometry x="1740" y="585" width="70" height="40" as="geometry" />
        </mxCell>
        <mxCell id="JtGoAlClPYQqaDhEBIHm-63" style="edgeStyle=none;orthogonalLoop=1;jettySize=auto;html=1;exitX=0;exitY=0;exitDx=0;exitDy=0;dashed=1;" parent="1" source="JtGoAlClPYQqaDhEBIHm-60" target="JtGoAlClPYQqaDhEBIHm-30" edge="1">
          <mxGeometry relative="1" as="geometry" />
        </mxCell>
        <mxCell id="JtGoAlClPYQqaDhEBIHm-69" value="d" style="edgeLabel;html=1;align=center;verticalAlign=middle;resizable=0;points=[];" parent="JtGoAlClPYQqaDhEBIHm-63" vertex="1" connectable="0">
          <mxGeometry x="-0.2695" relative="1" as="geometry">
            <mxPoint as="offset" />
          </mxGeometry>
        </mxCell>
        <mxCell id="JtGoAlClPYQqaDhEBIHm-60" value="EKF-SLAM融合" style="ellipse;whiteSpace=wrap;html=1;" parent="1" vertex="1">
          <mxGeometry x="1540" y="435" width="70" height="40" as="geometry" />
        </mxCell>
        <mxCell id="JtGoAlClPYQqaDhEBIHm-72" style="edgeStyle=none;orthogonalLoop=1;jettySize=auto;html=1;exitX=0;exitY=0.5;exitDx=0;exitDy=0;" parent="1" source="JtGoAlClPYQqaDhEBIHm-71" target="JtGoAlClPYQqaDhEBIHm-30" edge="1">
          <mxGeometry relative="1" as="geometry" />
        </mxCell>
        <mxCell id="JtGoAlClPYQqaDhEBIHm-73" style="edgeStyle=none;orthogonalLoop=1;jettySize=auto;html=1;exitX=0;exitY=0;exitDx=0;exitDy=0;" parent="1" source="JtGoAlClPYQqaDhEBIHm-71" edge="1">
          <mxGeometry relative="1" as="geometry">
            <mxPoint x="1660" y="124" as="targetPoint" />
          </mxGeometry>
        </mxCell>
        <mxCell id="JtGoAlClPYQqaDhEBIHm-92" style="edgeStyle=none;orthogonalLoop=1;jettySize=auto;html=1;exitX=1;exitY=1;exitDx=0;exitDy=0;entryX=0.5;entryY=0;entryDx=0;entryDy=0;" parent="1" source="JtGoAlClPYQqaDhEBIHm-71" target="JtGoAlClPYQqaDhEBIHm-87" edge="1">
          <mxGeometry relative="1" as="geometry" />
        </mxCell>
        <mxCell id="JtGoAlClPYQqaDhEBIHm-71" value="SLAM" style="ellipse;whiteSpace=wrap;html=1;" parent="1" vertex="1">
          <mxGeometry x="1710" y="225" width="110" height="70" as="geometry" />
        </mxCell>
        <mxCell id="JtGoAlClPYQqaDhEBIHm-104" style="edgeStyle=none;orthogonalLoop=1;jettySize=auto;html=1;exitX=0.25;exitY=1;exitDx=0;exitDy=0;entryX=0.5;entryY=0;entryDx=0;entryDy=0;" parent="1" source="JtGoAlClPYQqaDhEBIHm-74" target="JtGoAlClPYQqaDhEBIHm-102" edge="1">
          <mxGeometry relative="1" as="geometry" />
        </mxCell>
        <mxCell id="JtGoAlClPYQqaDhEBIHm-105" style="edgeStyle=none;orthogonalLoop=1;jettySize=auto;html=1;exitX=0.75;exitY=1;exitDx=0;exitDy=0;entryX=0.5;entryY=0;entryDx=0;entryDy=0;" parent="1" source="JtGoAlClPYQqaDhEBIHm-74" target="JtGoAlClPYQqaDhEBIHm-103" edge="1">
          <mxGeometry relative="1" as="geometry" />
        </mxCell>
        <mxCell id="JtGoAlClPYQqaDhEBIHm-74" value="IMU模型-捷联惯导算法" style="rounded=0;whiteSpace=wrap;html=1;" parent="1" vertex="1">
          <mxGeometry x="1710" y="410" width="89" height="40" as="geometry" />
        </mxCell>
        <mxCell id="JtGoAlClPYQqaDhEBIHm-76" value="IMU" style="ellipse;whiteSpace=wrap;html=1;" parent="1" vertex="1">
          <mxGeometry x="1261" y="300" width="70" height="40" as="geometry" />
        </mxCell>
        <mxCell id="JtGoAlClPYQqaDhEBIHm-79" value="高精地图格式" style="rounded=0;whiteSpace=wrap;html=1;" parent="1" vertex="1">
          <mxGeometry x="1470" y="585" width="89" height="40" as="geometry" />
        </mxCell>
        <mxCell id="JtGoAlClPYQqaDhEBIHm-81" value="车道线质量判断" style="rounded=0;whiteSpace=wrap;html=1;" parent="1" vertex="1">
          <mxGeometry x="1010" y="565" width="89" height="40" as="geometry" />
        </mxCell>
        <mxCell id="JtGoAlClPYQqaDhEBIHm-85" value="TDOA/质量判断" style="rounded=0;whiteSpace=wrap;html=1;" parent="1" vertex="1">
          <mxGeometry x="1934" y="585" width="89" height="40" as="geometry" />
        </mxCell>
        <mxCell id="JtGoAlClPYQqaDhEBIHm-87" value="EKF/图优化" style="rounded=0;whiteSpace=wrap;html=1;" parent="1" vertex="1">
          <mxGeometry x="1810" y="310" width="89" height="40" as="geometry" />
        </mxCell>
        <mxCell id="JtGoAlClPYQqaDhEBIHm-93" style="edgeStyle=none;orthogonalLoop=1;jettySize=auto;html=1;exitX=0.5;exitY=0;exitDx=0;exitDy=0;entryX=1;entryY=0.7;entryDx=0;entryDy=0;entryPerimeter=0;" parent="1" source="JtGoAlClPYQqaDhEBIHm-89" target="JtGoAlClPYQqaDhEBIHm-50" edge="1">
          <mxGeometry relative="1" as="geometry" />
        </mxCell>
        <mxCell id="JtGoAlClPYQqaDhEBIHm-89" value="后融合技术" style="rounded=0;whiteSpace=wrap;html=1;" parent="1" vertex="1">
          <mxGeometry x="2023" y="330" width="89" height="40" as="geometry" />
        </mxCell>
        <mxCell id="TmcgU3cM4aMXSd0HHcBp-1" style="edgeStyle=orthogonalEdgeStyle;rounded=0;orthogonalLoop=1;jettySize=auto;html=1;exitX=0.5;exitY=1;exitDx=0;exitDy=0;entryX=0.5;entryY=0;entryDx=0;entryDy=0;" edge="1" parent="1" source="JtGoAlClPYQqaDhEBIHm-98" target="JtGoAlClPYQqaDhEBIHm-100">
          <mxGeometry relative="1" as="geometry" />
        </mxCell>
        <mxCell id="JtGoAlClPYQqaDhEBIHm-98" value="联邦滤波/自适应滤波" style="rounded=0;whiteSpace=wrap;html=1;" parent="1" vertex="1">
          <mxGeometry x="1040" y="340" width="89" height="40" as="geometry" />
        </mxCell>
        <mxCell id="JtGoAlClPYQqaDhEBIHm-100" value="动力学约束" style="rounded=0;whiteSpace=wrap;html=1;" parent="1" vertex="1">
          <mxGeometry x="1040" y="425" width="89" height="40" as="geometry" />
        </mxCell>
        <mxCell id="JtGoAlClPYQqaDhEBIHm-102" value="初始校准" style="rounded=0;whiteSpace=wrap;html=1;" parent="1" vertex="1">
          <mxGeometry x="1660" y="465" width="80" height="35" as="geometry" />
        </mxCell>
        <mxCell id="JtGoAlClPYQqaDhEBIHm-103" value="零速修正" style="rounded=0;whiteSpace=wrap;html=1;" parent="1" vertex="1">
          <mxGeometry x="1770" y="465" width="80" height="35" as="geometry" />
        </mxCell>
        <mxCell id="JtGoAlClPYQqaDhEBIHm-106" value="贝叶斯估计理论" style="rounded=1;whiteSpace=wrap;html=1;shadow=1;" parent="1" vertex="1">
          <mxGeometry x="1050" y="90" width="100" height="50" as="geometry" />
        </mxCell>
      </root>
    </mxGraphModel>
  </diagram>
</mxfile>
